<svg width="20" height="18" viewBox="0 0 20 18" fill="none" xmlns="http://www.w3.org/2000/svg">
<rect x="20" width="18" height="20" rx="4" transform="rotate(90 20 0)" fill="#006239"/>
<path fill-rule="evenodd" clip-rule="evenodd" d="M8 6.75C6.75736 6.75 5.75 7.75736 5.75 9C5.75 10.2426 6.75736 11.25 8 11.25C8.31073 11.25 8.6063 11.1873 8.87518 11.0737C8.4805 10.4799 8.25 9.76663 8.25 9C8.25 8.23337 8.4805 7.52011 8.87518 6.92634C8.6063 6.8127 8.31073 6.75 8 6.75ZM10 5.82742C9.42114 5.46191 8.73479 5.25 8 5.25C5.92893 5.25 4.25 6.92893 4.25 9C4.25 11.0711 5.92893 12.75 8 12.75C8.73479 12.75 9.42114 12.5381 10 12.1726C10.5789 12.5381 11.2652 12.75 12 12.75C14.0711 12.75 15.75 11.0711 15.75 9C15.75 6.92893 14.0711 5.25 12 5.25C11.2652 5.25 10.5789 5.46191 10 5.82742ZM12 6.75C11.4233 6.75 10.8988 6.96602 10.5002 7.32274C10.0387 7.73581 9.75 8.3337 9.75 9C9.75 9.6663 10.0387 10.2642 10.5002 10.6773C10.8988 11.034 11.4233 11.25 12 11.25C13.2426 11.25 14.25 10.2426 14.25 9C14.25 7.75736 13.2426 6.75 12 6.75Z" fill="white"/>
</svg>
